# xmcd
#
# Track frame offsets:
#	150
#	12068
#	25540
#	36722
#	51630
#	64367
#	77226
#	92109
#	104575
#	118695
#	130509
#	145706
#	160713
#	174573
#	189677
#	202785
#	215617
#	227380
#	240854
#	254973
#	281100
#
# Disc length: 3769 seconds
#
# Revision: 1
# Processed by: cddbd v1.5.1PL0 Copyright (c) Steve Scherf et al.
# Submitted via: EasyCDDAExtractor 7.1.1.1
#
DISCID=2d0eb715
DTITLE=Django Reinhardt - Folie aux Six
DYEAR=2003
DGENRE=Blues
TTITLE0=Dinah
TTITLE1=Djangology
TTITLE2=Swing guitars
TTITLE3=Georgia on my mind
TTITLE4=Bill Coleman blues
TTITLE5=Tea for two
TTITLE6=Minor swing
TTITLE7=Night and day
TTITLE8=Daphne
TTITLE9=Stompin' at Decca
TTITLE10=Swing 39
TTITLE11=Nuages
TTITLE12=Swing de Paris
TTITLE13=Manoir de mes reves
TTITLE14=If dreams come true
TTITLE15=Exhoes of France (La Marseillaise)
TTITLE16=Peche a la muouche
TTITLE17=For sentimental reasons
TTITLE18=Django's blues
TTITLE19=September song
TTITLE20=Data
EXTD=
EXTT0=
EXTT1=
EXTT2=
EXTT3=
EXTT4=
EXTT5=
EXTT6=
EXTT7=
EXTT8=
EXTT9=
EXTT10=
EXTT11=
EXTT12=
EXTT13=
EXTT14=
EXTT15=
EXTT16=
EXTT17=
EXTT18=
EXTT19=
EXTT20=
PLAYORDER=
